<?xml version="1.0" encoding="utf-8"?>
<!-- Svg Vector Icons : http://www.onlinewebfonts.com/icon -->
<!DOCTYPE svg PUBLIC "-//W3C//DTD SVG 1.1//EN" "http://www.w3.org/Graphics/SVG/1.1/DTD/svg11.dtd">
<svg version="1.1" xmlns="http://www.w3.org/2000/svg" xmlns:xlink="http://www.w3.org/1999/xlink" x="0px" y="0px" viewBox="0 0 256 256" enable-background="new 0 0 256 256" xml:space="preserve">
<metadata> Svg Vector Icons : http://www.onlinewebfonts.com/icon </metadata>
<g><g><path fill="#000000" d="M98.5,10h98.3c8.1,0,15.1,2.9,20.9,8.6c5.8,5.8,8.6,12.7,8.6,20.9v137.7c0,8.1-2.9,15.1-8.6,20.9c-5.8,5.8-12.7,8.6-20.9,8.6H98.5c-8.1,0-15.1-2.9-20.9-8.6c-5.8-5.8-8.6-12.7-8.6-20.9V39.5c0-8.1,2.9-15.1,8.6-20.9C83.4,12.9,90.4,10,98.5,10L98.5,10z M49.3,51v165.5c0,2.7,1,5,2.9,7c1.9,1.9,4.2,2.9,7,2.9h126.1c-2,5.8-5.6,10.5-10.7,14.2c-5.1,3.7-10.8,5.5-17.1,5.5H59.2c-8.1,0-15.1-2.9-20.9-8.6c-5.8-5.8-8.6-12.7-8.6-20.9V78.8c0-6.4,1.8-12.1,5.5-17.1S43.5,53.1,49.3,51z M196.8,29.7H98.5c-2.7,0-5,1-7,2.9c-1.9,1.9-2.9,4.2-2.9,7v137.7c0,2.7,1,5,2.9,7c1.9,1.9,4.2,2.9,7,2.9h98.3c2.7,0,5-1,7-2.9c1.9-1.9,2.9-4.2,2.9-7V39.5c0-2.7-1-5-2.9-7C201.9,30.6,199.5,29.7,196.8,29.7z"/></g></g>
</svg>